<svg width="1440" height="193" viewBox="0 0 1440 193" fill="none" xmlns="http://www.w3.org/2000/svg">
<g clip-path="url(#clip0)">
<g filter="url(#filter0_d)">
<path fill-rule="evenodd" clip-rule="evenodd" d="M1844.65 186.089C1836.68 208.055 1899.98 231.566 1815.31 250.303C1726.64 269.922 1551.91 279.049 1386.73 287.416C1204.68 296.635 1011.83 308.103 819.453 300.74C622.926 293.221 497.071 269.559 370.89 248.55C239.117 226.61 55.1878 203.97 76.8631 177.101C98.4 150.401 327.37 137.419 475.375 119.023C596.96 103.912 697.936 85.1247 863.055 79.3843C1027.1 73.6813 1197.22 81.8427 1363.82 88.1372C1542.91 94.9042 1763.49 96.7887 1863.64 117.19C1963.55 137.543 1853.19 162.569 1844.65 186.089Z" fill="#3737B4"/>
</g>
</g>
<defs>
<filter id="filter0_d" x="-174.89" y="-172.544" width="2330.12" height="725.634" filterUnits="userSpaceOnUse" color-interpolation-filters="sRGB">
<feFlood flood-opacity="0" result="BackgroundImageFix"/>
<feColorMatrix in="SourceAlpha" type="matrix" values="0 0 0 0 0 0 0 0 0 0 0 0 0 0 0 0 0 0 127 0"/>
<feOffset/>
<feGaussianBlur stdDeviation="125"/>
<feColorMatrix type="matrix" values="0 0 0 0 0.270588 0 0 0 0 0.270588 0 0 0 0 0.898039 0 0 0 0.5 0"/>
<feBlend mode="normal" in2="BackgroundImageFix" result="effect1_dropShadow"/>
<feBlend mode="normal" in="SourceGraphic" in2="effect1_dropShadow" result="shape"/>
</filter>
<clipPath id="clip0">
<rect width="251.096" height="1904.24" fill="white" transform="matrix(0.0111891 0.999937 -0.999987 -0.00508466 1436.98 10.5948)"/>
</clipPath>
</defs>
</svg>
